<svg version="1" xmlns="http://www.w3.org/2000/svg" width="300" height="300" viewBox="0 0 225.000000 225.000000"><path d="M100.6 12.6c-12.9 2.6-25.9 7.9-36.2 14.8C56.1 33 53 35.8 45.9 44.1c-14.2 16.7-23.6 46.6-20 63.2.5 2.3 1.5 6.9 2.2 10.2 2 9.2 6.7 19.6 13.7 30.4 4.5 6.8 4.6 10.1.2 14.6-3 3.1-4 3.5-8.3 3.5-6.2 0-11.1 2.3-13.7 6.5-1.1 1.8-4.4 6.3-7.4 10-5.1 6.4-5.4 7.1-6 14.2-.8 8.8.3 11.4 6.1 13.8 3.2 1.4 15.3 1.5 99.2 1.3 89.8-.3 95.8-.4 98.9-2.1 5-2.7 7.2-7.1 7.2-14.2 0-5.5-.3-6.4-4.1-11-2.2-2.8-5.8-7.6-8-10.8-4.5-6.5-6.7-7.7-14.3-7.7-4.2 0-5.7-.5-7.4-2.3-3.3-3.5-2.7-7.1 2.2-14 9.7-13.7 14.7-25.9 17.1-41.2 4.1-26.9-9.7-59.6-32.7-77.3C164 26 150.3 18.8 142 16c-14.7-4.8-28.5-6-41.4-3.4zm22.5 2.4c14.4 1.8 19.3 3.2 31.8 9.3 20.5 10.1 37.3 30.8 43.1 52.9 3.5 13.5 2.6 35.9-2 47.3-3.4 8.5-7.5 16.1-12.1 22-5.4 7.2-6.1 8-12.4 13-2 1.6-4.2 3.5-4.9 4-.6.6-2.4 1.8-4.1 2.8-2.1 1.3-1.7.8 1-1.4 13.6-11 25.6-27 29.1-38.8.9-3.1 2.1-7 2.8-8.6 1.9-5 1.4-29.9-.8-37-2.5-8.1-7.3-18.1-10.1-20.9-1.2-1.2-2.6-3.2-2.9-4.4-1.1-3.3-17.7-19.5-22.4-21.7-2.3-1.1-4.2-2.3-4.2-2.8 0-.4-.7-.7-1.5-.7s-1.5-.5-1.5-1c0-.6-1.1-1-2.4-1-1.3 0-2.6-.4-2.8-1-.1-.5-1.2-1.1-2.3-1.3-1.1-.2-3-.8-4.2-1.5-1.2-.7-3.5-1.2-5.2-1.2-1.6 0-3.3-.5-3.6-1-.8-1.3-33.5-1.4-33.5-.1 0 .6-1.7 1.1-3.7 1.3-2.1.2-3.7.8-3.6 1.4.1.6-1.4 1.1-3.5 1.2-2 .1-3.8.6-4 1.2-.2.5-1.5 1-2.8 1-1.4 0-2.7.6-3 1.4-.3.8-1.9 1.8-3.5 2.1-1.6.4-2.9 1-2.9 1.3 0 .4-2.3 2-5 3.6s-4.8 3.2-4.7 3.5c.2.3-1 1.8-2.5 3.3-1.5 1.5-2.8 2.4-2.8 2.1 0-.3-1.8 1.7-4 4.3-2.2 2.7-4 5.4-4 6.1 0 .7-.4 1.3-1 1.3-.5 0-1 .6-1 1.4 0 .8-.3 1.6-.8 1.8-1.4.6-6.2 11-6.2 13.5 0 1.3-.4 2.1-1 1.8-.6-.4-1 1-1 3.5 0 2.3-.5 5-1.1 6.1-2.7 5.1-.5 32.2 3.4 43.4 4.1 11.6 13.6 24.2 25.2 33.4 9.3 7.5 18.4 12 30.5 15.2 6.5 1.7 6.5 1.7 2.2 1.8-2.3.1-5-.3-6-.8-.9-.5-3.5-1.4-5.7-2.1-6.3-2-17.5-7.8-23.4-12.2-13.2-10-22.5-22.4-29.1-39.3-3.7-9.4-5-36.2-2.1-45.5 5.3-17.5 10.8-27.4 21.5-38.2 9.2-9.4 19.6-16 34.1-21.8 3.2-1.3 16.5-3.7 27.1-4.9.6 0 4.9.4 9.5.9zm20.1 15.9c5 2.1 6.6 4.8 4.8 8.1-1.5 2.8-5.9 2.6-15-.8-7.7-2.8-9.2-4.6-7.6-8.9.9-2.1 11.3-1.2 17.8 1.6zm-47.4 2.7c.3 3.3.5 3.2-10.4 7.9-3.4 1.5-7.2 2.5-8.5 2.3-2-.2-2.4-.9-2.4-3.8 0-3.3.4-3.7 6.5-6.8 4.8-2.4 7.5-3.2 10.5-3 3.7.3 4 .6 4.3 3.4zM129 47.1c8 2.2 18 7.7 20.5 11.2 2.2 3.2 1.9 7-.7 8.7-13 8.3-31 18.3-33.8 18.7-5.2.8-9 3.1-13.5 7.8-2.3 2.5-10 7.8-18 12.5-21 12.4-23.5 11.8-23.5-6.1 0-12.6 1.2-18.9 5.5-27.5 3.8-7.8 11.7-16.1 20-20.9C96.4 45 115 43.2 129 47.1zm49.5 13.5c5.7 5.7 8.6 19.2 4.6 21.4-2.7 1.4-7.8 1.3-8.8-.3-1.9-2.9-6.3-15.4-6.3-17.9 0-4.5 7-6.6 10.5-3.2zM56.8 64.4c.2 1-1.3 6.1-3.3 11.2-3.8 9.5-4.7 10.4-8.9 8.8-2.4-.9-2-7.5.9-14 1.4-3.2 3.1-6.4 3.7-7.1 1.7-2 7.2-1.3 7.6 1.1zM163 80.5c2.4 2.8 3.5 15 2.2 24.9-1.9 15-5.6 22.6-11 22.6-2.6 0-5.3-2.5-17.1-15.8-12.6-14.2-12.6-14.3 3.9-24 16.9-9.9 19.5-10.8 22-7.7zm-45 12.7c5.3 5.7-.9 15.8-7.9 12.8-4-1.6-6.4-6.1-5-9.6 1.6-4.4 2.9-5.4 7-5.4 2.6 0 4.4.7 5.9 2.2zm25 28.8c2.7 2.4 7.6 9.8 7.3 10.7-.5 1.5-3 1.7-3.5.4-.1-.5-2.8-3.6-5.8-6.8-8.3-8.6-16-17.8-16-18.9 0-.6.5-1.5 1.1-2.1.8-.8 3.2 1.3 8.7 7.5 4.2 4.8 7.9 8.9 8.2 9.2zm-15.4-6.8c18.3 19.1 20.7 24.3 13.6 29-2 1.4-6.5 3.5-9.8 4.7-5.4 2-7.6 2.2-20 1.9-15.1-.4-22.2-2.3-28.4-7.5-4.5-3.7-4-7 1.9-14 15.7-18.5 16.9-19.3 28.6-19.3h9.1l5 5.2zm-75.3 3.5c2.5 6.7 4.7 13.3 4.7 13.9 0 .2-.9.8-2 1.4-3.2 1.7-5.8-.5-9.1-7.3-4.3-9.2-3.7-14.7 1.7-14.7 1.8 0 2.7 1.2 4.7 6.7zm131.7-2.9c2.2 1.8 2.2 2.1 1 7.1-1.4 5.9-6.6 14.4-9.2 14.9-.9.2-3.2-.4-5.2-1.2-3.3-1.4-3.6-1.8-3-4.3.7-3.4 5.4-15.3 6.7-17.1 1.4-1.8 7.2-1.5 9.7.6zM80.5 130.5c-2.7 3.5-4.5 4.1-5.2 1.8-.4-1.1 6.7-6.6 7.5-5.8.2.2-.8 2-2.3 4zm6.6 26.2c5.5 2.8 7.4 4.3 7.4 5.8 0 1.8-.7 2-6.1 2-4.9 0-6.8-.5-10.2-2.8-3.4-2.2-4.2-3.3-4.2-5.7 0-2.6.4-3 2.9-3 1.5 0 6.2 1.7 10.2 3.7zm61.1 1.8c.9 3.7-1.1 6.2-5.9 7.1-3.8.7-15.3-1.4-15.3-2.7 0-.5.5-.9 1.2-.9.6 0 1.9-.6 2.7-1.4 3.5-3.1 9.7-5.6 13-5.4 2.9.3 3.6.8 4.3 3.3zM31 169.7c0 .4-1.2 1.9-2.6 3.4-3.4 3.6-2.6 5.9 2 5.9 2.9 0 3.6.5 4.4 2.9.6 1.7 2.3 3.6 3.9 4.4 6.1 3.2 17.7 5.8 27.9 6.4 20.3 1.2 10 2.3-20.9 2.3-23 0-31.6-.3-32.5-1.2-2.3-2.3-1.1-5.4 6.1-15.1 5.4-7.3 7.7-9.7 9.4-9.7 1.3 0 2.3.3 2.3.7zm174.5 8.9c12.4 16.9 13.1 16.5-24.9 16.4-16.6-.1-31.7-.5-33.6-1-3-.7-2.5-.8 3.5-.9 7.6-.2 12.3-1 22.8-4.2 6.8-2.1 8.8-3.4 10.7-7 .6-1 1.7-1.9 2.5-1.9 1.7 0 2-1.6.5-2.5-.6-.4-.8-1-.5-1.5.7-1.1 3.7-.1 4.8 1.7 1.1 1.8 6.6 1.7 7.3-.1.3-.8-.6-2.8-2-4.3-3.2-3.4-3.3-4.3-.3-4.3 1.7 0 3.9 2.3 9.2 9.6zm-147.2-7.9c-.7.2-2.1.2-3 0-1-.3-.4-.5 1.2-.5 1.7 0 2.4.2 1.8.5zm96.7-.3c0 .3-.4.8-1 1.1-.5.3-1 .1-1-.4 0-.6.5-1.1 1-1.1.6 0 1 .2 1 .4zm-5 2.6c0 .5-.5 1-1.1 1-.5 0-.7-.5-.4-1 .3-.6.8-1 1.1-1 .2 0 .4.4.4 1zm-111.5 4.1c-.8 1.2-4.5 1.2-4.5 0 0-1 3-2 4.3-1.4.4.3.5.9.2 1.4zm106.2-1.5c-.3.3-1.2.4-1.9.1-.8-.3-.5-.6.6-.6 1.1-.1 1.7.2 1.3.5zM137 178c-2 1.3-3.3 1.3-2.5 0 .3-.6 1.4-1 2.3-1 1.5 0 1.5.2.2 1zm-11.2 2.1c-1.8 1.2-22.5 1.1-23.2 0-.4-.6 4.6-.9 12-.9s12 .4 11.2.9z"/></svg>